<?xml version="1.0" encoding="UTF-8" standalone="no"?>
<!-- Created with Inkscape (http://www.inkscape.org/) -->

<svg
   xmlns:dc="http://purl.org/dc/elements/1.1/"
   xmlns:cc="http://creativecommons.org/ns#"
   xmlns:rdf="http://www.w3.org/1999/02/22-rdf-syntax-ns#"
   xmlns:svg="http://www.w3.org/2000/svg"
   xmlns="http://www.w3.org/2000/svg"
   xmlns:sodipodi="http://sodipodi.sourceforge.net/DTD/sodipodi-0.dtd"
   xmlns:inkscape="http://www.inkscape.org/namespaces/inkscape"
   width="1031.8048"
   height="364.09399"
   id="svg2"
   version="1.1"
   inkscape:version="0.48.5 r10040"
   sodipodi:docname="Nuovo documento 1">
  <defs
     id="defs4" />
  <sodipodi:namedview
     id="base"
     pagecolor="#ffffff"
     bordercolor="#666666"
     borderopacity="1.0"
     inkscape:pageopacity="0.0"
     inkscape:pageshadow="2"
     inkscape:zoom="0.98994949"
     inkscape:cx="445.83412"
     inkscape:cy="153.99583"
     inkscape:document-units="px"
     inkscape:current-layer="layer1"
     showgrid="false"
     inkscape:window-width="1920"
     inkscape:window-height="1025"
     inkscape:window-x="-2"
     inkscape:window-y="-3"
     inkscape:window-maximized="1"
     fit-margin-top="0.5"
     fit-margin-left="0.5"
     fit-margin-right="0.5"
     fit-margin-bottom="0.5" />
  <metadata
     id="metadata7">
    <rdf:RDF>
      <cc:Work
         rdf:about="">
        <dc:format>image/svg+xml</dc:format>
        <dc:type
           rdf:resource="http://purl.org/dc/dcmitype/StillImage" />
        <dc:title></dc:title>
      </cc:Work>
    </rdf:RDF>
  </metadata>
  <g
     inkscape:label="Livello 1"
     inkscape:groupmode="layer"
     id="layer1"
     transform="translate(152.75258,-3.604296)">
    <path
       style="fill:none;stroke:#00016d;stroke-width:3.5;stroke-linecap:butt;stroke-linejoin:miter;stroke-miterlimit:4;stroke-opacity:1;stroke-dasharray:none"
       d="M 381.83766,40.189332 215.16249,106.8594 53.538085,190.70206 -115.15739,317.98128"
       id="path3904"
       inkscape:connector-curvature="0" />
    <path
       style="fill:none;stroke:#00016d;stroke-width:3.5;stroke-linecap:butt;stroke-linejoin:miter;stroke-miterlimit:4;stroke-opacity:1;stroke-dasharray:none"
       d="m 47.47717,194.74267 34.345186,117.1777"
       id="path3908"
       inkscape:connector-curvature="0" />
    <path
       style="fill:none;stroke:#00016d;stroke-width:3.5;stroke-linecap:butt;stroke-linejoin:miter;stroke-miterlimit:4;stroke-opacity:1;stroke-dasharray:none"
       d="m 341.43156,187.6716 -118.18785,88.89343 200.01021,48.48732"
       id="path3910"
       inkscape:connector-curvature="0" />
    <path
       style="fill:none;stroke:#00016d;stroke-width:3.5;stroke-linecap:butt;stroke-linejoin:miter;stroke-miterlimit:4;stroke-opacity:1;stroke-dasharray:none"
       d="m 380.82751,41.199485 190.91883,71.720835 170.71578,110.10662 98.99495,106.06602"
       id="path3912"
       inkscape:connector-curvature="0" />
    <path
       style="fill:none;stroke:#00016d;stroke-width:3.5;stroke-linecap:butt;stroke-linejoin:miter;stroke-miterlimit:4;stroke-opacity:1;stroke-dasharray:none"
       d="M 572.75649,112.92032 540.43161,226.0574"
       id="path3914"
       inkscape:connector-curvature="0" />
    <path
       style="fill:none;stroke:#00016d;stroke-width:3.5;stroke-linecap:butt;stroke-linejoin:miter;stroke-miterlimit:4;stroke-opacity:1;stroke-dasharray:none"
       d="M 378.8072,38.169027 536.391,223.02694 638.41641,326.0625"
       id="path3916"
       inkscape:connector-curvature="0" />
    <path
       style="fill:none;stroke:#00016d;stroke-width:3.5;stroke-linecap:butt;stroke-linejoin:miter;stroke-miterlimit:4;stroke-opacity:1;stroke-dasharray:none"
       d="M 741.45197,224.0371 639.42656,328.08281"
       id="path3918"
       inkscape:connector-curvature="0" />
    <path
       style="fill:none;stroke:#00a728;stroke-width:5;stroke-linecap:round;stroke-linejoin:round;stroke-miterlimit:4;stroke-opacity:1;stroke-dasharray:none"
       d="m 377.29198,41.199484 -162.12949,66.670066 124.24877,76.7716 85.86296,143.44166"
       id="path3922"
       inkscape:connector-curvature="0"
       sodipodi:nodetypes="cccc" />
    <path
       sodipodi:type="arc"
       style="fill:#dffff9;fill-opacity:1;stroke:#002880;stroke-width:5.5;stroke-linecap:round;stroke-linejoin:round;stroke-miterlimit:4;stroke-opacity:1;stroke-dasharray:none"
       id="path2985"
       sodipodi:cx="326.27927"
       sodipodi:cy="63.42284"
       sodipodi:rx="34.345188"
       sodipodi:ry="34.345188"
       d="m 360.62445,63.42284 c 0,18.968324 -15.37686,34.345188 -34.34518,34.345188 -18.96833,0 -34.34519,-15.376864 -34.34519,-34.345188 0,-18.968324 15.37686,-34.345188 34.34519,-34.345188 18.96832,0 34.34518,15.376864 34.34518,34.345188 z"
       transform="translate(55.55839,-22.223356)" />
    <text
       xml:space="preserve"
       style="font-size:40px;font-style:normal;font-weight:normal;line-height:125%;letter-spacing:0px;word-spacing:0px;fill:#002880;fill-opacity:1;stroke:none;font-family:Sans"
       x="369.71582"
       y="55.341618"
       id="text3755"
       sodipodi:linespacing="125%"><tspan
         sodipodi:role="line"
         id="tspan3757"
         x="369.71582"
         y="55.341618">1</tspan></text>
    <path
       sodipodi:type="arc"
       style="fill:#dffff9;fill-opacity:1;stroke:#002880;stroke-width:5.5;stroke-linecap:round;stroke-linejoin:round;stroke-miterlimit:4;stroke-opacity:1;stroke-dasharray:none"
       id="path2985-3"
       sodipodi:cx="326.27927"
       sodipodi:cy="63.42284"
       sodipodi:rx="34.345188"
       sodipodi:ry="34.345188"
       d="m 360.62445,63.42284 c 0,18.968324 -15.37686,34.345188 -34.34518,34.345188 -18.96833,0 -34.34519,-15.376864 -34.34519,-34.345188 0,-18.968324 15.37686,-34.345188 34.34519,-34.345188 18.96832,0 34.34518,15.376864 34.34518,34.345188 z"
       transform="translate(-112.12692,43.43656)" />
    <text
       xml:space="preserve"
       style="font-size:40px;font-style:normal;font-weight:normal;line-height:125%;letter-spacing:0px;word-spacing:0px;fill:#002880;fill-opacity:1;stroke:none;font-family:Sans"
       x="201.02037"
       y="122.01169"
       id="text3755-8"
       sodipodi:linespacing="125%"><tspan
         sodipodi:role="line"
         id="tspan3757-6"
         x="201.02037"
         y="122.01169">2</tspan></text>
    <path
       sodipodi:type="arc"
       style="fill:#dffff9;fill-opacity:1;stroke:#002880;stroke-width:5.5;stroke-linecap:round;stroke-linejoin:round;stroke-miterlimit:4;stroke-opacity:1;stroke-dasharray:none"
       id="path2985-1"
       sodipodi:cx="326.27927"
       sodipodi:cy="63.42284"
       sodipodi:rx="34.345188"
       sodipodi:ry="34.345188"
       d="m 360.62445,63.42284 c 0,18.968324 -15.37686,34.345188 -34.34518,34.345188 -18.96833,0 -34.34519,-15.376864 -34.34519,-34.345188 0,-18.968324 15.37686,-34.345188 34.34519,-34.345188 18.96832,0 34.34518,15.376864 34.34518,34.345188 z"
       transform="translate(13.131989,119.198)" />
    <text
       xml:space="preserve"
       style="font-size:40px;font-style:normal;font-weight:normal;line-height:125%;letter-spacing:0px;word-spacing:0px;fill:#002880;fill-opacity:1;stroke:none;font-family:Sans"
       x="326.27927"
       y="196.76299"
       id="text3755-0"
       sodipodi:linespacing="125%"><tspan
         sodipodi:role="line"
         id="tspan3757-3"
         x="326.27927"
         y="196.76299">0</tspan></text>
    <path
       sodipodi:type="arc"
       style="fill:#dffff9;fill-opacity:1;stroke:#002880;stroke-width:5.5;stroke-linecap:round;stroke-linejoin:round;stroke-miterlimit:4;stroke-opacity:1;stroke-dasharray:none"
       id="path2985-4"
       sodipodi:cx="326.27927"
       sodipodi:cy="63.42284"
       sodipodi:rx="34.345188"
       sodipodi:ry="34.345188"
       d="m 360.62445,63.42284 c 0,18.968324 -15.37686,34.345188 -34.34518,34.345188 -18.96833,0 -34.34519,-15.376864 -34.34519,-34.345188 0,-18.968324 15.37686,-34.345188 34.34519,-34.345188 18.96832,0 34.34518,15.376864 34.34518,34.345188 z"
       transform="translate(248.49753,47.477174)" />
    <text
       xml:space="preserve"
       style="font-size:40px;font-style:normal;font-weight:normal;line-height:125%;letter-spacing:0px;word-spacing:0px;fill:#002880;fill-opacity:1;stroke:none;font-family:Sans"
       x="562.65497"
       y="126.05231"
       id="text3755-1"
       sodipodi:linespacing="125%"><tspan
         sodipodi:role="line"
         id="tspan3757-0"
         x="562.65497"
         y="126.05231">1</tspan></text>
    <path
       sodipodi:type="arc"
       style="fill:#dffff9;fill-opacity:1;stroke:#002880;stroke-width:5.5;stroke-linecap:round;stroke-linejoin:round;stroke-miterlimit:4;stroke-opacity:1;stroke-dasharray:none"
       id="path2985-34"
       sodipodi:cx="326.27927"
       sodipodi:cy="63.42284"
       sodipodi:rx="34.345188"
       sodipodi:ry="34.345188"
       d="m 360.62445,63.42284 c 0,18.968324 -15.37686,34.345188 -34.34518,34.345188 -18.96833,0 -34.34519,-15.376864 -34.34519,-34.345188 0,-18.968324 15.37686,-34.345188 34.34519,-34.345188 18.96832,0 34.34518,15.376864 34.34518,34.345188 z"
       transform="translate(-272.74119,124.24877)" />
    <text
       xml:space="preserve"
       style="font-size:40px;font-style:normal;font-weight:normal;line-height:125%;letter-spacing:0px;word-spacing:0px;fill:#002880;fill-opacity:1;stroke:none;font-family:Sans"
       x="31.314739"
       y="201.81375"
       id="text3755-83"
       sodipodi:linespacing="125%"><tspan
         sodipodi:role="line"
         id="tspan3757-38"
         x="31.314739"
         y="201.81375">-1</tspan></text>
    <path
       sodipodi:type="arc"
       style="fill:#dffff9;fill-opacity:1;stroke:#002880;stroke-width:5.5;stroke-linecap:round;stroke-linejoin:round;stroke-miterlimit:4;stroke-opacity:1;stroke-dasharray:none"
       id="path2985-7"
       sodipodi:cx="326.27927"
       sodipodi:cy="63.42284"
       sodipodi:rx="34.345188"
       sodipodi:ry="34.345188"
       d="m 360.62445,63.42284 c 0,18.968324 -15.37686,34.345188 -34.34518,34.345188 -18.96833,0 -34.34519,-15.376864 -34.34519,-34.345188 0,-18.968324 15.37686,-34.345188 34.34519,-34.345188 18.96832,0 34.34518,15.376864 34.34518,34.345188 z"
       transform="translate(-102.0254,215.16249)" />
    <text
       xml:space="preserve"
       style="font-size:40px;font-style:normal;font-weight:normal;line-height:125%;letter-spacing:0px;word-spacing:0px;fill:#002880;fill-opacity:1;stroke:none;font-family:Sans"
       x="214.15234"
       y="293.73761"
       id="text3755-5"
       sodipodi:linespacing="125%"><tspan
         sodipodi:role="line"
         id="tspan3757-1"
         x="214.15234"
         y="293.73761">1</tspan></text>
    <path
       sodipodi:type="arc"
       style="fill:#dffff9;fill-opacity:1;stroke:#002880;stroke-width:5.5;stroke-linecap:round;stroke-linejoin:round;stroke-miterlimit:4;stroke-opacity:1;stroke-dasharray:none"
       id="path2985-40"
       sodipodi:cx="326.27927"
       sodipodi:cy="63.42284"
       sodipodi:rx="34.345188"
       sodipodi:ry="34.345188"
       d="m 360.62445,63.42284 c 0,18.968324 -15.37686,34.345188 -34.34518,34.345188 -18.96833,0 -34.34519,-15.376864 -34.34519,-34.345188 0,-18.968324 15.37686,-34.345188 34.34519,-34.345188 18.96832,0 34.34518,15.376864 34.34518,34.345188 z"
       transform="translate(213.14219,163.64471)" />
    <text
       xml:space="preserve"
       style="font-size:40px;font-style:normal;font-weight:normal;line-height:125%;letter-spacing:0px;word-spacing:0px;fill:#002880;fill-opacity:1;stroke:none;font-family:Sans"
       x="520.22858"
       y="241.20967"
       id="text3755-3"
       sodipodi:linespacing="125%"><tspan
         sodipodi:role="line"
         id="tspan3757-4"
         x="520.22858"
         y="241.20967">-1</tspan></text>
    <path
       sodipodi:type="arc"
       style="fill:#dffff9;fill-opacity:1;stroke:#002880;stroke-width:5.5;stroke-linecap:round;stroke-linejoin:round;stroke-miterlimit:4;stroke-opacity:1;stroke-dasharray:none"
       id="path2985-77"
       sodipodi:cx="326.27927"
       sodipodi:cy="63.42284"
       sodipodi:rx="34.345188"
       sodipodi:ry="34.345188"
       d="m 360.62445,63.42284 c 0,18.968324 -15.37686,34.345188 -34.34518,34.345188 -18.96833,0 -34.34519,-15.376864 -34.34519,-34.345188 0,-18.968324 15.37686,-34.345188 34.34519,-34.345188 18.96832,0 34.34518,15.376864 34.34518,34.345188 z"
       transform="translate(416.18285,158.59396)" />
    <text
       xml:space="preserve"
       style="font-size:40px;font-style:normal;font-weight:normal;line-height:125%;letter-spacing:0px;word-spacing:0px;fill:#002880;fill-opacity:1;stroke:none;font-family:Sans"
       x="730.34027"
       y="236.15892"
       id="text3755-39"
       sodipodi:linespacing="125%"><tspan
         sodipodi:role="line"
         id="tspan3757-16"
         x="730.34027"
         y="236.15892">2</tspan></text>
    <path
       sodipodi:type="arc"
       style="fill:#dffff9;fill-opacity:1;stroke:#002880;stroke-width:5.5;stroke-linecap:round;stroke-linejoin:round;stroke-miterlimit:4;stroke-opacity:1;stroke-dasharray:none"
       id="path2985-8"
       sodipodi:cx="326.27927"
       sodipodi:cy="63.42284"
       sodipodi:rx="34.345188"
       sodipodi:ry="34.345188"
       d="m 360.62445,63.42284 c 0,18.968324 -15.37686,34.345188 -34.34518,34.345188 -18.96833,0 -34.34519,-15.376864 -34.34519,-34.345188 0,-18.968324 15.37686,-34.345188 34.34519,-34.345188 18.96832,0 34.34518,15.376864 34.34518,34.345188 z"
       transform="translate(313.14729,260.61936)" />
    <text
       xml:space="preserve"
       style="font-size:40px;font-style:normal;font-weight:normal;line-height:125%;letter-spacing:0px;word-spacing:0px;fill:#002880;fill-opacity:1;stroke:none;font-family:Sans"
       x="629.32507"
       y="339.19452"
       id="text3755-08"
       sodipodi:linespacing="125%"><tspan
         sodipodi:role="line"
         id="tspan3757-2"
         x="629.32507"
         y="339.19452">3</tspan></text>
    <path
       sodipodi:type="arc"
       style="fill:#dffff9;fill-opacity:1;stroke:#002880;stroke-width:5.5;stroke-linecap:round;stroke-linejoin:round;stroke-miterlimit:4;stroke-opacity:1;stroke-dasharray:none"
       id="path2985-9"
       sodipodi:cx="326.27927"
       sodipodi:cy="63.42284"
       sodipodi:rx="34.345188"
       sodipodi:ry="34.345188"
       d="m 360.62445,63.42284 c 0,18.968324 -15.37686,34.345188 -34.34518,34.345188 -18.96833,0 -34.34519,-15.376864 -34.34519,-34.345188 0,-18.968324 15.37686,-34.345188 34.34519,-34.345188 18.96832,0 34.34518,15.376864 34.34518,34.345188 z"
       transform="translate(-245.46707,248.49753)" />
    <text
       xml:space="preserve"
       style="font-size:40px;font-style:normal;font-weight:normal;line-height:125%;letter-spacing:0px;word-spacing:0px;fill:#002880;fill-opacity:1;stroke:none;font-family:Sans"
       x="54.548248"
       y="327.07266"
       id="text3755-53"
       sodipodi:linespacing="125%"><tspan
         sodipodi:role="line"
         id="tspan3757-10"
         x="54.548248"
         y="327.07266">10</tspan></text>
    <path
       sodipodi:type="arc"
       style="fill:#dffff9;fill-opacity:1;stroke:#002880;stroke-width:5.5;stroke-linecap:round;stroke-linejoin:round;stroke-miterlimit:4;stroke-opacity:1;stroke-dasharray:none"
       id="path2985-93"
       sodipodi:cx="326.27927"
       sodipodi:cy="63.42284"
       sodipodi:rx="34.345188"
       sodipodi:ry="34.345188"
       d="m 360.62445,63.42284 c 0,18.968324 -15.37686,34.345188 -34.34518,34.345188 -18.96833,0 -34.34519,-15.376864 -34.34519,-34.345188 0,-18.968324 15.37686,-34.345188 34.34519,-34.345188 18.96832,0 34.34518,15.376864 34.34518,34.345188 z"
       transform="translate(100.00511,261.62951)" />
    <text
       xml:space="preserve"
       style="font-size:40px;font-style:normal;font-weight:normal;line-height:125%;letter-spacing:0px;word-spacing:0px;fill:#002880;fill-opacity:1;stroke:none;font-family:Sans"
       x="414.16254"
       y="340.20462"
       id="text3755-04"
       sodipodi:linespacing="125%"><tspan
         sodipodi:role="line"
         id="tspan3757-9"
         x="414.16254"
         y="340.20462">1</tspan></text>
    <path
       sodipodi:type="arc"
       style="fill:#dffff9;fill-opacity:1;stroke:#002880;stroke-width:5.5;stroke-linecap:round;stroke-linejoin:round;stroke-miterlimit:4;stroke-opacity:1;stroke-dasharray:none"
       id="path2985-98"
       sodipodi:cx="326.27927"
       sodipodi:cy="63.42284"
       sodipodi:rx="34.345188"
       sodipodi:ry="34.345188"
       d="m 360.62445,63.42284 c 0,18.968324 -15.37686,34.345188 -34.34518,34.345188 -18.96833,0 -34.34519,-15.376864 -34.34519,-34.345188 0,-18.968324 15.37686,-34.345188 34.34519,-34.345188 18.96832,0 34.34518,15.376864 34.34518,34.345188 z"
       transform="translate(515.1778,266.68027)" />
    <text
       xml:space="preserve"
       style="font-size:40px;font-style:normal;font-weight:normal;line-height:125%;letter-spacing:0px;word-spacing:0px;fill:#002880;fill-opacity:1;stroke:none;font-family:Sans"
       x="822.26422"
       y="345.2554"
       id="text3755-395"
       sodipodi:linespacing="125%"><tspan
         sodipodi:role="line"
         id="tspan3757-02"
         x="822.26422"
         y="345.2554">-2</tspan></text>
    <path
       sodipodi:type="arc"
       style="fill:#dffff9;fill-opacity:1;stroke:#002880;stroke-width:5.5;stroke-linecap:round;stroke-linejoin:round;stroke-miterlimit:4;stroke-opacity:1;stroke-dasharray:none"
       id="path2985-13"
       sodipodi:cx="326.27927"
       sodipodi:cy="63.42284"
       sodipodi:rx="34.345188"
       sodipodi:ry="34.345188"
       d="m 360.62445,63.42284 c 0,18.968324 -15.37686,34.345188 -34.34518,34.345188 -18.96833,0 -34.34519,-15.376864 -34.34519,-34.345188 0,-18.968324 15.37686,-34.345188 34.34519,-34.345188 18.96832,0 34.34518,15.376864 34.34518,34.345188 z"
       transform="translate(-441.43666,254.55844)" />
    <text
       xml:space="preserve"
       style="font-size:40px;font-style:normal;font-weight:normal;line-height:125%;letter-spacing:0px;word-spacing:0px;fill:#002880;fill-opacity:1;stroke:none;font-family:Sans"
       x="-129.29951"
       y="332.12344"
       id="text3755-6"
       sodipodi:linespacing="125%"><tspan
         sodipodi:role="line"
         id="tspan3757-5"
         x="-129.29951"
         y="332.12344">5</tspan></text>
    <path
       sodipodi:type="arc"
       style="fill:none;stroke:#00a715;stroke-width:5.5;stroke-linecap:round;stroke-linejoin:round;stroke-miterlimit:4;stroke-opacity:1;stroke-dasharray:none"
       id="path3920"
       sodipodi:cx="81.822357"
       sodipodi:cy="323.03204"
       sodipodi:rx="42.426407"
       sodipodi:ry="42.426407"
       d="m 124.24876,323.03204 c 0,23.43146 -18.99495,42.42641 -42.426403,42.42641 -23.431457,0 -42.426407,-18.99495 -42.426407,-42.42641 0,-23.43145 18.99495,-42.4264 42.426407,-42.4264 23.431453,0 42.426403,18.99495 42.426403,42.4264 z"
       transform="translate(-1.0101525,-11.111678)" />
  </g>
</svg>
